<?xml version="1.0" encoding="UTF-8"?>
<svg width="32" height="32" viewBox="0 0 32 32" xmlns="http://www.w3.org/2000/svg">
  <style>
    #shield { fill: #333333; }
	#badge { fill: #006400; }
	#tie_b { fill: #689468; }
	#tie { fill: #006400; }
    @media (prefers-color-scheme: dark) {
      #shield { fill: #ececec; }
    }
  </style>
  <path id="shield" d="M19.52,27.2L32,10.24L26.24,0L16,1.28L5.76,0L0,10.24L12.48,27.2L12.9472,23.552L2.72,10.24L4.288,7.648L11.52,12.16L16,3.84L14.88,3.68L11.2,11.04L5.056,6.368L7.36,2.56L16,3.84L20.48,12.16L27.7263,7.6683L26.96,6.4L20.8,11.2L17.12,3.68l7.52,-1.12l4.64,7.68l-2.56,3.328v3.872h-2.976l-4.6905,6.1058z"/>
  <path id="tie" d="M16,3.84L12.0308,11.2114L14.4,12.16L12.9472,23.552L16,27.52L19.0535,23.5458L17.6,12.16L19.9692,11.2114z"/>    
  <path id="tie_b" d="M16,32L12.48,27.2L12.9472,23.552L16,27.52L19.0535,23.5458L19.52,27.2z"/>
  <path id="badge" d="m26.4,13.92h-4.96v3.232H26.4V16.48h-4.32v-1.92h2.56v0.64h-2.56v0.64h3.68v0.64h0.64z"/>
</svg>